<svg width="81" height="81" viewBox="0 0 81 81" fill="none" xmlns="http://www.w3.org/2000/svg">
<path d="M6.25 63V21C6.25 18.9289 7.92893 17.25 10 17.25H23.5H70C72.0711 17.25 73.75 18.9289 73.75 21V63C73.75 65.0711 72.0711 66.75 70 66.75H23.5H10C7.92893 66.75 6.25 65.0711 6.25 63Z" stroke="#F14D34" stroke-width="2.5"/>
<path d="M30.5 24H37.5" stroke="#F14D34" stroke-width="2.5"/>
<path d="M11 24H18" stroke="#F14D34" stroke-width="2.5"/>
<path d="M11 35H18" stroke="#F14D34" stroke-width="2.5"/>
<path d="M11 41H18" stroke="#F14D34" stroke-width="2.5"/>
<path d="M11 47H18" stroke="#F14D34" stroke-width="2.5"/>
<path d="M11 53H15" stroke="#F14D34" stroke-width="2.5"/>
<path d="M41 24H48" stroke="#F14D34" stroke-width="2.5"/>
<path d="M52 24H59" stroke="#F14D34" stroke-width="2.5"/>
<path d="M36.852 48.168C35.8533 48.168 34.948 47.9533 34.136 47.524C33.3333 47.0853 32.6987 46.4833 32.232 45.718C31.7747 44.9433 31.546 44.0707 31.546 43.1C31.546 42.1293 31.7747 41.2613 32.232 40.496C32.6987 39.7213 33.3333 39.1193 34.136 38.69C34.948 38.2513 35.858 38.032 36.866 38.032C37.7153 38.032 38.4807 38.1813 39.162 38.48C39.8527 38.7787 40.4313 39.208 40.898 39.768L39.442 41.112C38.7793 40.3467 37.958 39.964 36.978 39.964C36.3713 39.964 35.83 40.0993 35.354 40.37C34.878 40.6313 34.5047 41 34.234 41.476C33.9727 41.952 33.842 42.4933 33.842 43.1C33.842 43.7067 33.9727 44.248 34.234 44.724C34.5047 45.2 34.878 45.5733 35.354 45.844C35.83 46.1053 36.3713 46.236 36.978 46.236C37.958 46.236 38.7793 45.8487 39.442 45.074L40.898 46.418C40.4313 46.9873 39.8527 47.4213 39.162 47.72C38.4713 48.0187 37.7013 48.168 36.852 48.168ZM48.6736 48L46.7836 45.27H46.6716H44.6976V48H42.4296V38.2H46.6716C47.5396 38.2 48.2909 38.3447 48.9256 38.634C49.5696 38.9233 50.0642 39.334 50.4096 39.866C50.7549 40.398 50.9276 41.028 50.9276 41.756C50.9276 42.484 50.7502 43.114 50.3956 43.646C50.0502 44.1687 49.5556 44.57 48.9116 44.85L51.1096 48H48.6736ZM48.6316 41.756C48.6316 41.2053 48.4542 40.7853 48.0996 40.496C47.7449 40.1973 47.2269 40.048 46.5456 40.048H44.6976V43.464H46.5456C47.2269 43.464 47.7449 43.3147 48.0996 43.016C48.4542 42.7173 48.6316 42.2973 48.6316 41.756ZM61.6425 48L61.6285 42.12L58.7445 46.964H57.7225L54.8525 42.246V48H52.7245V38.2H54.6005L58.2685 44.29L61.8805 38.2H63.7425L63.7705 48H61.6425Z" fill="#050C33"/>
</svg>
